<?xml version="1.0" standalone="no"?><!DOCTYPE svg PUBLIC "-//W3C//DTD SVG 1.1//EN" "http://www.w3.org/Graphics/SVG/1.1/DTD/svg11.dtd"><svg t="1756961434181" class="icon" viewBox="0 0 1105 1024" version="1.1" xmlns="http://www.w3.org/2000/svg" p-id="3985" xmlns:xlink="http://www.w3.org/1999/xlink" width="215.8203125" height="200"><path d="M549.236364 890.181818a404.386909 404.386909 0 1 0 0-808.727273 404.386909 404.386909 0 0 0 0 808.727273z" fill="#FFD21E" p-id="3986"></path><path d="M953.716364 485.841455c0-220.253091-184.087273-404.386909-404.340364-404.38691-220.253091 0-404.386909 184.133818-404.386909 404.38691 0 220.206545 184.133818 404.340364 404.386909 404.340363 220.253091 0 404.340364-184.133818 404.340364-404.386909z m-855.272728 0c0-245.294545 208.058182-450.932364 450.932364-450.932364 245.201455 0 450.885818 208.058182 450.885818 450.932364 0 245.573818-205.265455 450.885818-450.885818 450.885818-245.620364 0-450.932364-205.312-450.932364-450.932364z" fill="#FF9D0B" p-id="3987"></path><path d="M680.727273 375.808c14.894545 5.12 20.712727 35.607273 35.746909 27.694545a58.181818 58.181818 0 1 0-78.661818-24.064c7.074909 13.358545 29.649455-8.378182 43.054545-3.723636l-0.139636 0.093091z m-274.013091 0c-14.894545 5.12-20.852364 35.607273-35.746909 27.694545a58.181818 58.181818 0 1 1 78.661818-24.064c-7.074909 13.358545-29.789091-8.378182-43.054546-3.723636l0.139637 0.093091z" fill="#3A3B45" p-id="3988"></path><path d="M546.443636 655.034182c114.362182 0 151.272727-101.934545 151.272728-154.298182 0-27.229091-18.292364-18.618182-47.616-4.189091-27.089455 13.358545-63.534545 31.883636-103.563637 31.883636-83.642182 0-151.272727-80.058182-151.272727-27.694545s36.770909 154.298182 151.272727 154.298182h-0.093091z" fill="#FF323D" p-id="3989"></path><path d="M458.845091 628.363636a101.236364 101.236364 0 0 1 61.672727-52.270545c4.654545-1.396364 9.402182 6.656 14.429091 14.894545 4.654545 7.912727 9.541818 15.965091 14.429091 15.965091 5.213091 0 10.472727-7.912727 15.453091-15.732363 5.259636-8.145455 10.379636-16.058182 15.36-14.522182 24.994909 7.912727 45.893818 25.320727 58.181818 48.500363 43.426909-34.210909 59.345455-90.065455 59.345455-124.50909 0-27.229091-18.245818-18.618182-47.569455-4.189091l-1.629091 0.837818c-26.903273 13.358545-62.743273 31.045818-102.074182 31.045818s-75.031273-17.687273-102.027636-31.045818c-30.254545-15.034182-49.245091-24.436364-49.245091 3.351273 0 35.514182 16.989091 93.789091 63.674182 127.674181z" fill="#3A3B45" p-id="3990"></path><path d="M822.830545 430.545455a37.794909 37.794909 0 1 0 0-75.636364 37.794909 37.794909 0 0 0 0 75.636364z m-541.090909 0a37.794909 37.794909 0 1 0 0-75.636364 37.794909 37.794909 0 0 0 0 75.636364zM203.869091 558.545455c-18.850909 0-35.607273 7.68-47.336727 21.783272a69.492364 69.492364 0 0 0-15.499637 43.752728 82.618182 82.618182 0 0 0-22.574545-3.49091c-18.013091 0-34.304 6.842182-45.847273 19.269819a67.490909 67.490909 0 0 0-9.309091 81.454545c-10.24 8.424727-17.594182 19.921455-20.805818 32.861091-2.792727 10.472727-5.585455 32.581818 9.309091 55.109818a60.741818 60.741818 0 0 0-4.328727 58.414546c11.869091 26.996364 41.565091 48.221091 99.141818 71.028363 35.746909 14.196364 68.561455 23.272727 68.794182 23.365818 41.425455 11.496727 84.154182 17.733818 127.162181 18.618182 68.189091 0 116.968727-20.945455 144.989091-62.138182 45.149091-66.187636 38.772364-126.836364-19.781818-185.250909-32.209455-32.349091-53.76-79.965091-58.181818-90.437818-9.076364-30.906182-33.047273-65.396364-72.704-65.396363a66.327273 66.327273 0 0 0-53.527273 28.672c-11.636364-14.708364-23.04-26.205091-33.28-32.861091A86.109091 86.109091 0 0 0 203.869091 558.545455z m0 46.545454c5.957818 0 13.265455 2.56 21.178182 7.540364 24.901818 15.825455 72.750545 98.117818 90.298182 130.094545 5.818182 10.705455 15.965091 15.266909 24.901818 15.266909 18.059636 0 32.023273-17.826909 1.768727-40.494545-45.614545-34.071273-29.696-89.832727-7.912727-93.184 0.930909-0.279273 1.954909-0.279273 2.792727-0.279273 19.781818 0 28.485818 34.117818 28.485818 34.117818s25.6 64.232727 69.585455 108.218182c43.892364 43.845818 46.219636 79.127273 14.196363 125.998546-21.876364 32.023273-63.627636 41.704727-106.589091 41.704727-44.311273 0-89.925818-10.519273-115.432727-17.035637-1.256727-0.325818-156.485818-44.218182-136.843636-81.454545 3.258182-6.237091 8.750545-8.843636 15.592727-8.843636 27.694545 0 77.963636 41.239273 99.746909 41.239272 4.747636 0 8.145455-2.001455 9.634909-6.981818 9.216-33.186909-140.334545-47.150545-127.767272-95.092363 2.327273-8.471273 8.285091-11.869091 16.756363-11.869091 36.538182 0 118.690909 64.372364 135.912727 64.372363 1.303273 0 2.327273-0.372364 2.792728-1.210182 8.610909-13.963636 3.863273-23.738182-57.018182-60.50909-60.602182-36.770909-103.330909-58.88-79.127273-85.271273 2.792727-3.025455 6.749091-4.421818 11.636364-4.421818 36.910545 0 124.043636 79.36 124.043636 79.36s23.505455 24.436364 37.841455 24.436363c3.258182 0 6.050909-1.163636 7.912727-4.421818 10.007273-16.989091-93.789091-95.650909-99.607273-128.093091-3.956364-22.109091 2.792727-33.186909 15.220364-33.186909z" fill="#FF9D0B" p-id="3991"></path><path d="M449.163636 892.369455c31.976727-47.010909 29.649455-82.245818-14.242909-126.138182-43.985455-43.845818-69.585455-108.218182-69.585454-108.218182s-9.541818-37.236364-31.278546-33.745455c-21.783273 3.490909-37.701818 59.112727 7.912728 93.230546 45.474909 34.071273-9.076364 57.250909-26.670546 25.227636-17.454545-31.976727-65.396364-114.269091-90.298182-130.094545-24.762182-15.685818-42.216727-6.981818-36.398545 25.6 5.818182 32.488727 109.707636 111.150545 99.607273 128-10.146909 17.128727-45.754182-19.874909-45.754182-19.874909s-111.336727-101.376-135.68-74.938182c-24.203636 26.391273 18.525091 48.500364 79.127272 85.271273 60.881455 36.770909 65.629091 46.545455 57.018182 60.50909-8.704 13.963636-142.894545-99.234909-155.461818-51.2-12.567273 47.848727 136.983273 61.672727 127.767273 94.859637-9.309091 33.140364-105.425455-62.603636-124.974546-25.367273-19.781818 37.329455 135.586909 81.221818 136.843637 81.547636 50.036364 13.032727 177.477818 40.634182 222.021818-24.66909z" fill="#FFD21E" p-id="3992"></path><path d="M900.654545 558.545455c18.850909 0 35.746909 7.68 47.383273 21.736727 10.007273 12.381091 15.453091 27.834182 15.453091 43.752727 7.354182-2.187636 15.034182-3.351273 22.714182-3.490909 18.013091 0 34.304 6.888727 45.847273 19.316364a67.490909 67.490909 0 0 1 9.309091 81.454545c10.24 8.424727 17.501091 19.968 20.712727 32.861091 2.792727 10.472727 5.585455 32.581818-9.309091 55.109818a60.695273 60.695273 0 0 1 4.282182 58.414546c-11.869091 26.996364-41.518545 48.221091-99.002182 71.028363-35.84 14.196364-68.654545 23.272727-68.887273 23.365818-41.425455 11.496727-84.200727 17.733818-127.208727 18.618182-68.189091 0-116.922182-20.945455-144.989091-62.138182-45.149091-66.187636-38.725818-126.836364 19.781818-185.250909 32.349091-32.349091 53.899636-79.965091 58.321455-90.437818 9.076364-30.906182 32.907636-65.349818 72.610909-65.349818a66.327273 66.327273 0 0 1 53.527273 28.625455c11.636364-14.708364 23.04-26.205091 33.37309-32.814546a86.109091 86.109091 0 0 1 46.08-14.801454z m0 46.545454c-5.911273 0-13.125818 2.56-21.178181 7.540364-24.762182 15.825455-72.704 98.117818-90.298182 130.094545a28.253091 28.253091 0 0 1-24.901818 15.266909c-17.92 0-31.976727-17.826909-1.629091-40.494545 45.521455-34.071273 29.556364-89.832727 7.819636-93.184a17.92 17.92 0 0 0-2.792727-0.232727c-19.781818 0-28.532364 34.071273-28.532364 34.071272s-25.6 64.232727-69.445818 108.218182c-43.985455 43.845818-46.312727 79.127273-14.196364 125.998546 21.736727 32.023273 63.627636 41.704727 106.449455 41.704727 44.450909 0 89.972364-10.519273 115.572364-17.035637 1.163636-0.325818 156.485818-44.218182 136.843636-81.454545-3.397818-6.283636-8.750545-8.843636-15.592727-8.843636-27.694545 0-78.103273 41.239273-99.746909 41.239272-4.887273 0-8.238545-2.001455-9.63491-6.981818-9.309091-33.186909 140.194909-47.150545 127.627637-95.092363-2.187636-8.471273-8.145455-11.869091-16.756364-11.869091-36.538182 0-118.690909 64.372364-135.912727 64.372363-1.163636 0-2.187636-0.372364-2.653091-1.163636-8.610909-13.963636-3.956364-23.738182 56.785455-60.509091 60.834909-36.770909 103.563636-58.88 79.127272-85.317818-2.699636-3.025455-6.656-4.421818-11.403636-4.421818-37.003636 0-124.183273 79.36-124.183273 79.36s-23.505455 24.436364-37.701818 24.436363a8.610909 8.610909 0 0 1-7.912727-4.421818c-10.100364-16.989091 93.696-95.650909 99.514182-128.093091 3.956364-22.109091-2.792727-33.186909-15.26691-33.186909z" fill="#FF9D0B" p-id="3993"></path><path d="M655.453091 892.369455c-31.976727-47.010909-29.789091-82.245818 14.196364-126.138182 43.892364-43.845818 69.492364-108.218182 69.492363-108.218182s9.541818-37.236364 31.418182-33.745455c21.643636 3.490909 37.562182 59.112727-7.912727 93.230546-45.614545 34.071273 9.076364 57.250909 26.530909 25.227636 17.547636-31.976727 65.489455-114.269091 90.298182-130.094545 24.762182-15.685818 42.356364-6.981818 36.398545 25.6-5.818182 32.488727-109.614545 111.150545-99.467636 128 10.007273 17.128727 45.614545-19.874909 45.614545-19.874909s111.476364-101.376 135.68-74.938182c24.203636 26.391273-18.385455 48.500364-79.127273 85.271273-60.881455 36.770909-65.536 46.545455-57.018181 60.50909 8.704 13.963636 142.894545-99.234909 155.461818-51.2 12.567273 47.848727-136.843636 61.672727-127.674182 94.859637 9.309091 33.140364 105.332364-62.603636 124.974545-25.367273 19.688727 37.329455-135.540364 81.221818-136.843636 81.547636-50.129455 13.032727-177.570909 40.634182-222.021818-24.66909z" fill="#FFD21E" p-id="3994"></path></svg>