<?xml version="1.0" standalone="no"?><!DOCTYPE svg PUBLIC "-//W3C//DTD SVG 1.1//EN" "http://www.w3.org/Graphics/SVG/1.1/DTD/svg11.dtd"><svg t="1756964757250" class="icon" viewBox="0 0 1024 1024" version="1.1" xmlns="http://www.w3.org/2000/svg" p-id="7302" xmlns:xlink="http://www.w3.org/1999/xlink" width="200" height="200"><path d="M959.93856 495.413248c-1.941504-35.229696-7.65952-70.207488-18.128896-110.62272-0.126976-0.178176-0.126976-0.436224-0.126976-0.436224-13.428736-42.379264-31.430656-80.80384-54.71232-117.465088-33.138688-48.584704-72.09984-88.743936-119.789568-123.234304-36.507648-24.58624-74.369024-43.58144-116.084736-57.97888a2.054144 2.054144 0 0 0-0.3072-0.2048c-40.261632-11.54048-74.115072-17.924096-109.910016-20.580352-0.0512 0-22.376448-1.148928-22.376448-1.148928h-0.548864l-22.390784 0.485376c-46.006272 2.502656-87.760896 10.366976-131.659776 24.43264-0.063488 0.229376-0.268288 0.3072-0.268288 0.3072a592.416768 592.416768 0 0 0-59.63776 26.169344C260.096 139.341824 221.036544 169.007104 184.51456 206.204928c-29.652992 32.907264-53.06368 66.633728-73.859072 106.590208-15.802368 32.882688-27.430912 65.589248-36.634624 103.323648-0.065536 0.075776-0.065536 0.202752-0.065536 0.483328-7.237632 36.17792-10.452992 73.068544-9.889792 112.386048v0.305152c2.551808 44.705792 10.30144 86.114304 24.623104 130.537472 0 0.2048 0.075776 0.407552 0.075776 0.407552 7.124992 18.509824 15.357952 37.4272 26.144768 59.766784 0 0.1536 0.075776 0.331776 0.217088 0.436224 24.281088 43.986944 53.47328 82.003968 91.424768 119.123968 32.729088 29.618176 66.279424 53.102592 105.990144 73.887744 0.100352 0.100352 0.241664 0.253952 0.382976 0.253952 34.63168 16.287744 67.528704 27.6992 103.436288 36.073472 36.214784 7.50592 72.812544 10.979328 112.359424 10.416128 29.196288-1.837056 57.253888-5.564416 89.165824-12.077056 0.1024-0.2048 0.305152-0.2048 0.509952-0.2048 50.31936-13.555712 94.410752-32.831488 138.68032-60.710912 29.667328-20.29568 56.4224-42.942464 82.284544-69.595136 29.894656-32.831488 53.284864-66.533376 73.96352-106.309632 16.338944-34.387968 27.803648-67.221504 36.175872-103.168 7.68-36.661248 11.001856-72.353792 10.438656-112.717824z m-17.922048 16.77312c-0.509952 32.192512-3.678208 61.988864-10.008576 92.13952-8.169472 34.46784-19.0976 65.869824-34.875392 98.779136-19.836928 38.193152-42.330112 70.56384-70.87104 102.146048-24.764416 25.608192-50.731008 47.386624-78.995456 67.016704-42.428416 26.60352-84.887552 45.162496-133.394432 58.109952-30.814208 6.406144-58.105856 10.262528-85.71904 11.819008-37.912576 0.585728-73.234432-2.781184-107.968512-9.984-34.338816-8.067072-66.033664-19.044352-99.452928-34.772992-38.078464-20.015104-70.565888-42.586112-101.904384-70.975488-36.395008-35.741696-64.33792-72.148992-87.801856-114.579456-10.479616-21.624832-18.470912-39.852032-25.31328-57.800704-13.709312-42.686464-21.239808-82.61632-23.703552-125.609984-0.063488-5.18144-0.1024-10.594304-0.063488-15.777792a504.307712 504.307712 0 0 1 9.689088-92.60032c8.84736-36.227072 20.09088-67.936256 35.180544-99.28704 19.812352-38.219776 42.442752-70.746112 70.846464-101.943296 35.448832-36.380672 72.022016-64.311296 114.771968-87.875584 18.546688-9.422848 37.849088-17.795072 57.214976-25.096192 42.418176-13.633536 82.618368-21.21728 126.541824-23.691264 0.206848 0 20.348928-0.282624 21.79072-0.282624 0.62464 0 21.16608 0.868352 21.571584 0.868352 34.26304 2.578432 67.147776 8.859648 105.979904 19.98848 39.903232 13.96736 76.35968 31.965184 111.39072 55.556096 45.545472 33.036288 83.17952 71.892992 115.040256 118.48704 22.388736 35.180544 39.571456 71.868416 52.43904 112.666624 10.287104 39.18848 15.751168 73.017344 17.410048 106.563584 0.305152 5.414912 0.280576 10.8032 0.2048 16.136192z" fill="#E61C25" p-id="7303"></path><path d="M688.549888 817.405952c-6.127616-0.178176-10.749952 4.517888-10.928128 10.56768-0.024576 6.025216 4.470784 11.106304 10.698752 11.157504 6.10304 0.0512 11.055104-4.800512 11.055104-10.901504 0.1024-6.023168-4.724736-10.82368-10.825728-10.82368zM327.688192 812.527616c-6.088704-0.0512-10.82368 4.698112-10.887168 10.545152-0.075776 6.227968 4.493312 11.257856 10.582016 11.257856 6.088704 0.126976 11.104256-4.747264 11.13088-10.92608 0.178176-5.94944-4.798464-10.774528-10.825728-10.876928zM644.790272 870.99392c-0.763904 0.256-1.581056 0.256-2.066432-0.356352-0.739328-0.4608-1.302528-1.55648-2.11968-3.115008l-18.4832-39.548928h-0.561152l-9.166848 11.976704 0.536576 0.688128c0.331776-0.1024 0.817152-0.688128 1.380352-1.35168 0.458752-0.385024 0.815104-0.997376 1.173504-1.0752 0.663552-0.661504 0.868352-0.995328 1.124352-0.995328 1.581056-0.690176 2.70336-0.4096 3.21536 1.175552l15.01184 31.782912c0.968704 2.246656 0.9216 3.753984 0.206848 4.749312-0.6144 1.200128-2.146304 2.248704-4.49536 3.115008l0.4608 0.997376 18.843648-8.579072-0.616448-0.995328c-1.992704 0.919552-3.678208 1.531904-4.44416 1.531904zM397.221888 828.229632l-0.524288-0.536576-15.01184-0.253952-0.407552 0.790528c0.407552 0.3072 0.968704 0.3072 1.86368 0.3072 0.62464 0 1.175552 0.3072 2.004992 0.3072 0.62464 0.280576 1.04448 0.280576 1.288192 0.663552 1.583104 0.790528 1.865728 1.86368 1.073152 3.395584l-16.326656 30.992384c-1.148928 1.86368-2.564096 2.934784-3.815424 3.01056-1.314816 0-2.859008-0.432128-5.183488-1.734656l-0.585728 0.9216 18.266112 9.699328 0.587776-0.790528c-2.107392-1.226752-3.395584-2.32448-4.149248-2.73408-0.585728-0.815104-0.765952-1.226752-0.765952-1.939456 0.038912-0.868352 0.3072-2.197504 1.13664-3.473408l20.549632-38.62528zM559.722496 873.877504c-1.605632-2.142208-3.344384-4.110336-5.998592-5.74464-1.712128-1.302528-4.159488-2.142208-6.535168-2.449408-2.680832-0.512-5.79584-0.919552-9.140224-0.919552l2.22208-6.791168 15.036416-2.06848c0.229376 0 0.663552 0 0.790528-0.356352l0.282624-1.046528 1.736704-6.25664-0.663552-0.483328c-0.741376 0.78848-1.275904 1.529856-1.480704 1.759232-0.538624 0.178176-1.353728 0.4608-2.248704 0.739328l-14.90944 2.144256-5.337088 18.305024c-0.253952 0-0.253952 0.3072-0.253952 0.741376 0.229376 0.434176 0.229376 0.434176 0.432128 0.434176 6.612992-0.534528 12.230656 0 16.287744 2.476032 4.163584 2.193408 6.561792 5.720064 7.073792 10.186752 0.661504 3.956736 0.126976 7.327744-1.585152 9.981952-1.531904 2.553856-3.72736 4.110336-6.586368 4.64896-0.815104 0-1.65888 0-2.424832-0.3072-0.768 0-1.609728-0.7168-2.781184-1.226752-1.1776-0.509952-2.248704-0.714752-3.270656-1.253376-0.968704-0.405504-1.990656-0.68608-3.115008-0.405504-1.839104 0.405504-2.732032 1.327104-2.400256 3.295232 0.256 1.732608 1.175552 2.807808 3.065856 3.11296 2.17088 0.305152 4.29056 0.305152 6.356992 0.229376 5.53984-0.790528 9.984-3.217408 13.633536-7.018496 3.418112-3.702784 4.798464-8.12032 4.005888-13.55776-0.149504-3.444736-0.89088-6.023168-2.193408-8.169472zM474.43968 855.00928c-2.043904-2.371584-4.608-4.134912-7.991296-4.644864h-2.707456c-2.168832-0.053248-4.186112 0.178176-6.088704 1.251328-2.627584 1.200128-5.044224 3.115008-6.637568 5.767168-1.939456 2.224128-2.627584 5.081088-3.42016 8.298496-0.52224 4.491264 0.346112 8.093696 2.06848 11.07968 2.11968 2.910208 4.876288 4.775936 9.101312 5.593088 1.251328 0.382976 2.832384 0.432128 4.390912 0.151552 0.282624 0 0.93184 0 1.212416-0.151552 2.004992-0.309248 3.88096-1.0752 5.53984-2.095104h0.243712c-1.697792 3.725312-3.878912 6.94272-7.059456 10.160128-0.585728 0.843776-1.275904 1.273856-2.105344 2.066432-4.261888 3.497984-9.791488 5.361664-16.685056 5.43744l-0.2048 1.378304c4.390912 0.462848 8.579072 0.206848 12.765184-0.712704 2.105344-0.663552 4.288512-1.353728 6.152192-2.322432a35.96288 35.96288 0 0 0 5.298176-3.702784c3.52256-2.834432 6.127616-6.20544 8.13056-10.647552 1.13664-3.192832 1.90464-5.793792 2.451456-8.142848 0.346112-3.141632 0.446464-6.25664-0.268288-9.6768-0.843776-3.493888-2.144256-6.711296-4.186112-9.086976z m-2.873344 18.333696l-0.561152 3.21536c-0.268288 0.692224-0.751616 1.60768-1.65888 2.146304a17.774592 17.774592 0 0 1-6.152192 1.122304h-1.251328c-2.834432-0.585728-4.876288-2.195456-5.94944-4.620288-1.212416-2.527232-1.722368-5.515264-1.45408-8.630272 0.319488-1.380352 0.561152-2.195456 0.382976-2.859008 0.929792-4.061184 2.144256-6.895616 3.739648-8.884224 1.275904-1.60768 3.217408-2.32448 5.054464-2.605056 0.512 0 1.073152 0 1.380352 0.280576 4.1472 0.7168 6.612992 3.805184 7.122944 9.168896 0.62464 2.551808 0.315392 6.455296-0.653312 11.665408zM806.141952 517.29408c2.144256-162.476032-128.239616-296.357888-290.65216-298.553344-162.578432-2.195456-296.382464 128.188416-298.528768 290.637824-2.144256 162.527232 128.202752 296.460288 290.779136 298.57792 162.351104 2.095104 296.308736-128.415744 298.401792-290.6624z m-298.323968 282.5216c-157.917184-2.06848-284.741632-132.298752-282.697728-290.332672 2.080768-157.98272 132.388864-284.588032 290.269184-282.468352 157.841408 2.066432 284.727296 132.093952 282.58304 290.154496-1.990656 157.904896-132.1984 284.739584-290.154496 282.646528zM243.808256 749.572096c-14.116864 15.06304-10.313728 32.268288 5.668864 47.333376l18.061312 17.002496 1.13664-1.275904c-4.773888-5.312512-4.837376-6.588416-0.3072-11.487232l27.94496-29.489152c4.5056-4.698112 6.189056-5.105664 11.487232-0.536576l1.314816-1.251328-18.956288-17.924096c-20.475904-19.273728-38.053888-11.104256-46.350336-2.371584z m47.704064 13.50656l-31.936512 33.826816c-1.277952 1.404928-2.349056 2.654208-5.568512-0.436224-8.33536-7.913472-10.377216-13.14816-11.003904-19.019776-0.585728-8.448 2.94912-15.343616 8.132608-21.039104 18.307072-19.298304 34.73408-3.878912 38.946816 0 3.254272 3.168256 3.600384 4.395008 1.429504 6.668288zM235.472896 684.4928c-8.833024-14.043136-26.118144-18.8928-42.520576-8.603648-17.922048 11.157504-19.019776 29.411328-10.92608 42.176512 7.811072 12.765184 24.827904 19.836928 42.749952 8.577024 16.46592-10.389504 19.519488-28.082176 10.696704-42.149888z m-16.36352 33.316864c-17.641472 11.057152-29.411328 6.486016-34.289664-1.35168-5.052416-7.964672-4.108288-20.578304 13.494272-31.760384 17.117184-10.620928 29.089792-6.995968 34.490368 1.583104 5.261312 8.577024 3.383296 20.91008-13.694976 31.52896zM194.265088 637.44c9.447424-3.037184 11.27424-1.581056 13.979648 4.902912l1.65888-0.536576-6.535168-20.527104-1.837056 0.663552c1.837056 6.432768 0.548864 8.884224-8.439808 11.616256L159.04768 644.48512v-0.126976l35.561472-53.639168-0.585728-1.353728-45.867008 14.475264c-10.350592 3.371008-11.44832 0.765952-13.8752-4.620288l-1.619968 0.612352 6.496256 20.348928 1.736704-0.612352c-1.456128-5.820416-1.634304-8.579072 8.361984-11.84768l29.167616-9.191424 0.141312 0.1024-31.209472 46.7968 4.773888 14.882816 1.65888-0.485376c-1.173504-3.42016-1.236992-5.052416 2.080768-9.904128l38.395904-12.48256zM155.727872 563.478528c11.974656-0.714752 17.23392-3.803136 22.35392-8.962048 6.57408-6.815744 8.679424-17.156096 8.259584-26.19392-0.729088-10.186752-6.57408-22.032384-7.91552-22.032384l-18.470912 1.251328c-6.434816 0.3072-6.776832-2.066432-7.340032-5.974016l-1.65888 0.024576 1.492992 23.308288 1.480704-0.0512c0.178176-6.227968 0.178176-8.144896 7.749632-8.476672l14.80704-0.944128c3.278848-0.075776 5.742592 5.998592 6.086656 12.331008 0.868352 14.170112-8.998912 24.305664-25.452544 25.122816-23.259136 1.30048-29.820928-11.84768-30.27968-20.475904-0.651264-12.765184 8.093696-17.973248 14.460928-20.985856l-0.100352-2.043904-19.197952 1.839104 0.06144 1.990656c2.668544 0.458752 3.295232 3.497984 3.434496 4.083712 0.129024 3.090432-2.668544 7.303168-2.144256 16.61952 1.097728 19.38432 17.016832 30.437376 32.372736 29.569024zM136.52992 463.681536l38.920192 7.503872c6.77888 1.431552 8.718336 2.041856 7.467008 9.652224l1.759232 0.3584 4.814848-24.942592-1.558528-0.356352c-1.941504 6.918144-3.766272 7.40352-9.791488 6.356992l-18.470912-3.649536 5.361664-27.164672 17.43872 3.295232c6.739968 1.327104 8.640512 2.117632 7.542784 9.803776l1.76128 0.2048 4.837376-24.89344-1.798144-0.282624c-1.622016 6.842368-3.663872 7.354368-9.547776 6.180864l-39.839744-7.71072c-6.434816-1.175552-7.442432-2.603008-6.612992-9.445376l-1.759232-0.434176-4.7104 25.044992 1.65888 0.436224c1.773568-6.66624 2.94912-7.76192 9.623552-6.408192l17.360896 3.293184-5.18144 27.420672-17.539072-3.42016c-6.36928-1.302528-7.303168-2.627584-6.473728-9.623552l-1.798144-0.3072-4.837376 24.918016 1.683456 0.509952c1.839104-6.723584 3.014656-7.696384 9.689088-6.340608zM160.018432 372.944896l25.83552 12.152832c5.015552 2.295808 21.21728 9.957376 30.930944-10.698752 9.996288-21.417984-5.566464-28.721152-12.204032-31.860736l-21.661696-10.237952c-8.718336-3.98336-9.20576-5.94944-6.88128-12.68736l-1.558528-0.843776-9.166848 19.300352 1.622016 0.739328c3.115008-5.691392 5.464064-6.918144 14.323712-2.910208l22.351872 10.645504c6.77888 3.166208 9.127936 5.33504 10.440704 7.174144 2.73408 4.390912 3.180544 10.237952 0.141312 16.771072-6.817792 14.299136-18.331648 8.886272-23.590912 6.434816l-26.50112-12.484608c-5.986304-2.732032-6.508544-4.29056-3.905536-10.979328l-1.634304-0.765952-11.067392 23.437312 1.65888 0.790528c3.295232-6.248448 4.777984-6.912 10.866688-3.977216zM237.37344 325.71392c0.346112 2.42688-0.62464 3.72736-1.388544 5.005312l1.312768 1.073152 11.411456-13.989888-1.380352-1.277952c-1.212416 1.558528-3.866624 4.851712-6.854656 2.502656-0.753664-0.661504-1.581056-1.734656-2.246656-2.781184l-5.707776-10.059776 15.089664-18.612224 9.091072 2.705408c1.55648 0.229376 4.530176 1.226752 5.578752 2.144256 2.69312 2.144256 0.854016 4.415488-1.251328 7.200768l1.390592 1.097728 14.667776-18.153472-1.314816-1.148928c-2.84672 2.809856-4.366336 3.241984-11.425792 1.302528l-54.788096-14.85824-1.112064 1.480704 22.900736 43.198464c2.148352 3.698688 5.609472 10.10688 6.027264 13.170688z m-19.798016-47.026176l26.29632 7.50592-13.211648 16.46592-13.084672-23.97184zM794.066944 309.118976l18.507776-15.01184c7.55712-6.074368 9.498624-5.769216 14.604288-0.790528l1.378304-1.073152-13.582336-16.441344-1.378304 1.021952c3.827712 5.13024 4.032512 8.015872-3.57376 14.219264l-19.1488 15.521792c-5.720064 4.749312-8.630272 5.976064-10.950656 6.281216-5.029888 0.714752-10.596352-1.429504-15.140864-7.071744-9.957376-12.228608-0.1536-20.44928 4.339712-24.02304l22.77376-18.4832c4.898816-4.08576 6.637568-4.08576 11.589632 1.097728l1.327104-1.097728-16.441344-20.043776-1.275904 1.150976c4.08576 5.691392 4.08576 7.30112-1.226752 11.616256l-22.059008 17.946624c-4.237312 3.600384-18.126848 14.884864-3.67616 32.475136 14.862336 18.305024 28.291072 7.45472 33.933312 2.705408zM799.40608 334.905344c-8.78592 4.698112-10.981376 3.446784-14.555136-2.400256l-1.60768 0.714752 10.0352 19.249152 1.45408-0.968704c-2.807808-6.025216-1.910784-8.679424 6.539264-13.14816l31.655936-16.390144 0.1024 0.126976-25.761792 58.925056 0.536576 1.456128 42.815488-22.263808c9.418752-5.029888 11.07968-2.578432 14.39744 2.27328l1.531904-0.768-9.957376-19.173376-1.531904 0.843776c2.502656 5.79584 2.934784 8.247296-6.281216 13.223936l-27.213824 14.12096-0.131072-0.053248 22.953984-51.648512-7.30112-13.914112-1.50528 0.843776c1.632256 3.344384 1.912832 4.798464-0.385024 10.289152l-35.790848 18.661376zM864.149504 386.705408l-38.5024 12.969984c-6.25664 2.297856-8.015872 1.65888-10.672128-5.566464l-1.636352 0.436224 8.732672 25.63072 1.736704-0.458752c-1.992704-6.408192-1.939456-8.859648 4.900864-11.132928l38.449152-13.04576c6.918144-2.32448 8.271872-0.382976 10.672128 5.79584l1.736704-0.612352-8.833024-25.632768-1.636352 0.561152c2.097152 7.200768 1.4848 8.859648-4.947968 11.055104zM874.919936 425.641984l-45.748224 30.814208 0.251904 1.353728 54.126592 11.13088c7.276544 1.531904 8.781824 2.502656 9.852928 6.817792l1.736704-0.2048-3.268608-18.432-1.583104 0.229376c0.329728 3.497984 0.663552 6.588416-3.16416 7.278592-1.839104 0.380928-5.922816-0.538624-6.486016-0.5632l-35.334144-7.532544 28.084224-19.044352c4.23936-2.859008 7.55712-5.081088 8.986624-5.208064 2.910208-0.636928 3.31776 1.097728 4.442112 6.076416l1.76128-0.280576-4.18816-23.973888-1.810432 0.356352c0.641024 3.928064-0.202752 5.920768-7.65952 11.18208zM885.850112 499.040256l-40.695808-0.690176c-7.04512-0.2048-7.862272-2.297856-8.067072-8.271872h-1.683456l-0.894976 49.682432 15.343616 4.315136 0.053248-2.605056c-9.166848-4.108288-11.84768-8.884224-11.64288-20.29568 0.231424-13.631488 0.3072-13.631488 4.08576-13.582336l22.822912 0.585728-0.561152 13.938688c-0.178176 7.686144-1.456128 8.962048-8.833024 9.8304l-0.024576 2.093056 21.211136 0.487424v-2.11968c-6.381568-1.173504-8.552448-2.093056-8.474624-10.289152l0.227328-13.938688 20.297728 0.229376c3.268608 0.180224 3.166208 1.175552 3.065856 3.012608l-0.1024 12.511232c-0.282624 10.082304-1.683456 12.355584-10.008576 13.582336v2.400256l13.070336-0.024576 0.9216-48.560128-1.736704-0.077824c-0.5632 5.666816-1.124352 7.81312-8.374272 7.786496zM882.325504 565.239808l-38.959104-7.786496c-6.791168-1.558528-8.579072-2.095104-7.45472-9.498624l-1.632256-0.280576-5.16096 24.68864 1.839104 0.382976c1.787904-7.098368 3.649536-7.65952 9.650176-6.383616l17.719296 3.57376-0.8704 5.054464-32.014336 15.726592-2.859008 14.477312 1.636352 0.253952c1.019904-3.497984 2.95936-5.361664 5.767168-6.817792l26.400768-13.989888c0.098304 4.773888-0.1536 16.900096 11.896832 19.197952 13.836288 2.961408 18.737152-11.464704 20.322304-19.505152l5.003264-24.662016-1.736704-0.5632c-1.939456 6.234112-3.012608 7.38304-9.547776 6.131712z m3.422208 16.058368c-0.768 3.600384-3.422208 15.419392-15.265792 12.99456-12.791808-2.551808-10.237952-16.084992-8.937472-23.642112l22.007808 4.339712c2.783232 0.7168 3.190784 1.509376 2.195456 6.30784zM862.513152 629.655552c-8.474624-3.166208-14.372864 0.868352-22.05696 6.918144-12.25728 9.652224-15.57504 9.906176-20.473856 7.91552-4.64896-1.76128-8.12032-7.047168-5.312512-13.965312 4.39296-11.388928 17.184768-11.43808 21.803008-11.43808l0.817152-2.117632-19.1488-4.468736-0.712704 1.939456c1.378304 0.512 2.349056 1.96608 1.76128 3.72736-1.048576 2.578432-5.588992 5.541888-8.144896 12.177408-4.646912 12.00128 1.173504 21.088256 8.423424 23.922688 17.616896 6.842368 30.43328-20.96128 43.147264-15.958016 5.259264 2.06848 6.230016 7.481344 4.622336 11.667456-3.602432 9.089024-13.402112 11.513856-20.856832 10.186752l-0.919552 2.095104 18.866176 5.259264 0.688128-1.71008c-0.866304-0.536576-2.627584-1.787904-1.65888-4.214784 0.792576-2.117632 5.593088-5.615616 7.50592-10.72128 3.01056-7.60832 1.35168-17.311744-8.349696-21.215232zM841.017344 689.217536l-35.56352-19.607552c-5.691392-3.16416-6.535168-4.798464-2.934784-11.743232l-1.531904-0.944128-13.172736 23.896064 1.531904 0.868352c3.47136-5.79584 5.359616-7.327744 11.614208-3.878912l35.61472 19.632128c6.436864 3.549184 5.875712 5.668864 2.965504 11.84768l1.478656 0.841728 13.072384-23.844864-1.636352-0.790528c-3.77856 6.301696-5.38624 6.938624-11.43808 3.723264zM820.74624 714.235904c6.78912 7.55712 6.637568 10.543104 0.688128 18.6368l-3.012608 3.956736-36.685824-27.342848c-5.462016-4.18816-6.969344-5.412864-2.248704-12.509184l-1.427456-0.997376-16.03584 21.522432 1.429504 1.073152c4.773888-6.127616 6.920192-5.922816 11.896832-2.11968l37.4272 27.957248-2.832384 3.907584c-6.10304 8.091648-8.910848 9.115648-18.051072 4.698112l-1.456128 1.632256 12.894208 8.861696 30.840832-41.30816-12.10368-9.752576-1.323008 1.783808z" fill="#E61C25" p-id="7304"></path><path d="M770.707456 774.336512l-20.731904-4.876288-10.723328-11.771904c-4.698112-5.156864-5.974016-6.918144 0.6144-13.021184l-1.251328-1.325056-20.703232 18.763776 1.327104 1.40288c6.125568-5.511168 7.913472-5.23264 12.457984-0.251904l11.972608 13.043712 3.854336 24.459264c1.81248 11.436032-0.100352 13.760512-2.246656 16.20992l1.122304 1.329152 14.958592-13.531136-1.378304-1.19808c-1.990656 1.86368-4.644864 4.184064-6.559744 2.01728-0.944128-0.892928-1.200128-2.195456-1.302528-3.422208l-4.29056-24.076288 23.719936 5.69344c1.302528 0.434176 3.04128 1.226752 3.649536 2.043904 1.814528 1.86368 0.233472 3.47136-2.85696 6.486016l1.275904 1.273856 18.968576-17.28512-1.302528-1.148928c-3.11296 2.297856-4.491264 3.012608-20.574208-0.815104zM493.90592 441.571328c-0.346112-0.3072 0 0.075776 0 0z" fill="#E61C25" p-id="7305"></path><path d="M730.99264 394.60864c-13.627392-9.039872-25.673728 1.554432-24.694784 18.786304 0.294912 5.183488 3.6352 8.658944 3.028992 14.239744-0.817152 7.538688-3.397632 19.873792-6.817792 24.543232-5.353472 7.31136-31.381504-0.16384-41.35936 1.363968l-7.424 2.424832c-3.291136 0.638976-33.980416-0.27648-34.844672-1.212416-4.352-4.714496-6.610944-11.892736-9.846784-17.573888-3.223552-5.656576-7.698432-10.975232-9.846784-17.72544-4.66944-14.671872-3.323904-38.4512 0.909312-52.41856l11.968512-27.26912 5.302272-25.905152c0.854016-3.280896-1.323008-7.677952-0.75776-11.513856 2.899968-19.656704-10.135552-53.774336-28.481536-51.206144-19.142656 2.678784-1.728512 29.548544 0 37.419008l0.454656 23.482368c-3.694592 34.824192-26.32704 58.404864-20.60288 100.896768 2.187264 16.236544 14.833664 23.77728 17.119232 38.934528-11.036672 2.105344-23.924736 0.129024-34.996224-1.060864l-14.542848-0.151552c-3.75808-4.745216-5.834752-11.1616-9.392128-16.20992-5.484544-7.780352-17.936384-15.552512-15.603712-30.451712 2.258944-14.434304 9.076736-27.887616 13.484032-41.056256 10.99776-32.872448 10.962944-69.632-1.667072-100.442112-4.052992-9.887744-7.942144-17.737728-21.512192-17.72544-21.876736 7.43424 0.180224 34.52928 3.938304 47.570944 2.029568 7.043072 2.664448 18.450432 1.818624 25.7536-3.743744 32.331776-20.955136 50.839552-24.997888 83.777536-1.87392 15.27808 5.953536 29.106176 11.513856 38.176768 1.611776 2.627584 6.541312 6.084608 5.756928 10.149888-7.35232 3.784704-52.013056-0.458752-61.96224-1.667072l-11.665408 0.909312-1.212416-8.333312c-2.758656-6.5536-7.016448-12.93312-8.18176-21.36064-2.347008-16.990208 5.576704-26.779648 9.998336-37.57056l4.544512-14.845952c5.206016-12.126208 10.88512-23.140352 12.877824-39.389184 2.430976-19.822592-6.23616-52.543488-14.997504-63.629312-1.82272-2.308096-9.015296-5.322752-12.423168-5.605376-6.16448-0.509952-16.703488 6.950912-15.755264 13.635584 1.089536 7.66976 5.873664 11.382784 8.484864 17.573888 2.799616 6.637568 4.214784 15.673344 5.302272 23.785472 1.72032 12.83072-4.042752 42.145792-8.18176 49.690624-4.706304 8.579072-11.358208 16.523264-15.45216 26.056704l-3.786752 17.270784c-3.47136 19.003392 9.990144 30.17728 8.333312 41.207808-18.0224 2.473984-41.842688 2.992128-60.901376-0.454656l-9.392128 0.909312-4.39296-9.392128c-1.880064-12.505088 0.847872-39.968768-8.937472-43.782144l0.454656-2.576384c-3.977216-2.578432-10.36288-3.360768-15.300608-0.909312-18.860032 9.365504-10.358784 41.828352-5.453824 61.052928 2.439168 9.562112 0.985088 18.419712 3.938304 26.662912 9.07264 25.309184 17.6128 49.651712 30.603264 70.596608l2.121728 5.605376c10.56768 13.336576 25.817088 24.016896 38.934528 34.844672l20.451328 10.149888 4.39296 3.786752 5.15072 2.576384 1.212416 8.484864c1.703936 7.501824 3.81952 15.579136 6.817792 23.179264l12.120064 23.63392c5.95968 18.120704 4.212736 43.18208-0.909312 61.659136l-8.937472 25.300992c-2.08896 8.192-0.638976 20.637696 7.424 21.966848 21.260288 3.506176 24.311808-18.950144 27.572224-34.238464 4.446208-20.840448 11.0592-47.366144 5.15072-71.960576-3.741696-15.57504-17.17248-32.550912-16.513024-49.084416 19.345408 4.74112 37.337088 11.220992 60.598272 11.362304 6.627328 23.16288 14.884864 40.013824 19.84512 65.294336l-1.363968 18.4832c-1.486848 8.33536-0.913408 16.140288-2.87744 23.63392-2.029568 7.735296-6.680576 17.549312-8.937472 25.7536-3.268608 11.876352 3.03104 17.33632 11.968512 18.634752 12.156928 1.763328 15.771648-17.168384 18.786304-24.997888 10.467328-27.191296 14.923776-59.848704 6.66624-93.62432l-13.180928-33.632256 0.151552-0.151552h7.575552c6.567936-0.851968 14.739456-2.269184 22.421504-3.180544l9.240576 0.606208 14.845952-2.727936 0.606208 0.303104c2.414592 1.427456 2.131968 4.39296 3.483648 6.969344 11.814912 22.499328 14.686208 40.054784 10.604544 71.657472-1.091584 8.452096 0.077824 16.949248-1.363968 25.300992-1.77152 10.266624-15.681536 56.15616 9.998336 45.75232 4.093952-1.65888 8.554496-7.612416 10.907648-11.0592 2.015232-2.951168 0.589824-8.073216 1.212416-11.362304l2.27328-4.39296 3.483648-22.573056 0.606208-24.694784c1.449984-11.902976 3.29728-28.286976 0.151552-39.692288-2.00704-7.276544-11.55072-34.59072-8.634368-38.934528 2.179072-3.24608 18.13504-6.565888 23.027712-8.484864 13.344768-5.23264 26.238976-14.344192 38.631424-21.663744 7.327744-4.329472 14.358528-12.568576 19.695616-19.089408l4.544512-2.725888c5.154816-6.045696 11.165696-12.09344 15.755264-18.331648 7.610368-10.344448 16.257024-33.19808 18.786304-47.722496l1.667072-16.058368 6.817792-14.239744c2.799616-8.290304-1.634304-16.676864-2.725888-21.966848-3.188736-15.388672 8.910848-44.7488-4.704256-53.782528z m-326.02112 170.887168l-2.121728 4.847616c-5.216256 2.961408-23.711744-9.281536-27.420672-11.362304-22.9888-12.894208-36.841472-38.393856-44.843008-66.203648-1.333248-4.636672-4.497408-11.280384-3.028992-16.664576l5.756928-1.51552c21.317632-0.0512 43.440128 1.032192 61.96224 1.060864l16.361472-0.909312c4.722688 2.695168 6.617088 10.770432 8.18176 16.816128 8.316928 32.1536 0.188416 53.712896-14.848 73.930752z m106.350592-46.962688c-2.680832 16.369664-13.068288 28.102656-18.786304 42.11712-4.182016 10.248192-3.16416 24.385536-6.363136 36.360192-10.717184 3.917824-47.88224-6.047744-58.630144-9.998336l-0.303104-0.303104 13.635584-26.662912c6.567936-12.879872 10.213376-27.29984 12.726272-43.782144 1.376256-9.025536-0.233472-22.00576-2.879488-28.78464l-4.847616-10.907648 0.151552-0.909312 0.303104-0.303104c7.020544-0.034816 13.4144 1.046528 18.180096 1.818624 8.99072 1.456128 39.68-3.637248 44.99456 0.909312l0.454656 0.303104c4.179968 5.61152 2.656256 32.24576 1.363968 40.142848z m77.4144 3.938304c-3.698688 8.349696-10.784768 16.420864-13.484032 25.602048L569.344 581.09952l2.424832 13.180928c-9.764864 2.291712-48.789504 4.67968-55.447552 0.151552-4.03456-11.800576 8.767488-29.937664 11.81696-38.32832 4.470784-12.29824 10.606592-23.119872 13.484032-36.661248 1.380352-6.494208 0.466944-14.948352-0.303104-21.815296-0.65536-5.8368 0.827392-11.54048 0.606208-18.028544l31.813632-2.87744c6.187008 0.059392 14.1312 1.78176 19.24096 0 4.90496 13.215744 0.813056 34.332672-4.243456 45.750272z m103.776256-2.576384c-9.545728 33.824768-40.982528 57.495552-74.53696 67.264512-5.115904 1.488896-10.883072 5.623808-16.816128 4.241408l-2.27328-23.482368c2.179072-14.118912 9.916416-22.441984 14.6944-33.783808 6.326272-15.017984 9.238528-33.671168 9.089024-55.144448 0.804864-0.958464 1.601536-1.951744 3.6352-1.667072l8.333312 3.483648 44.843008-4.089856c8.005632 0.053248 15.020032 2.816 22.1184 1.060864 6.510592 5.81632-7.151616 35.254272-9.086976 42.11712zM296.175616 191.936512c0.935936-0.845824 0.882688-2.912256 1.480704-4.081664 0.970752-1.898496 2.521088-3.325952 3.80928-4.898816 0.233472-0.284672 0.335872-0.405504 0.331776-0.966656 3.172352-1.968128 2.33472 2.414592 1.814528 4.747264l-1.30048 3.80928c-0.43008 0.618496-1.056768 0.970752-1.390592 1.753088-1.253376 2.936832 0.636928 6.463488 1.783808 8.28416l7.800832 10.098688 1.23904 3.356672c1.263616 2.834432 4.470784 7.366656 6.862848 9.070592 1.60768 1.144832 6.641664 1.318912 9.101312 0.815104l3.084288-0.755712c0.4096 0.100352 0.745472 0.722944 0.937984 1.058816 1.384448 2.42688 2.506752 6.084608 2.902016 9.222144 0.26624 2.097152-0.3584 3.928064-0.63488 5.654528-0.946176 5.89824-1.6896 14.905344 2.963456 16.961536l1.087488-0.212992c1.28 0.169984 3.033088 0.34816 4.112384-0.120832 1.939456-0.841728 1.78176-5.033984 1.421312-7.68l-0.393216-4.020224 0.362496-4.564992c-0.43008-2.803712-1.636352-9.291776-0.241664-11.821056 1.134592-0.299008 6.002688 6.74816 7.317504 7.800832 0.827392 0.661504 2.107392 1.030144 3.264512 1.329152 2.113536 0.546816 3.915776-1.069056 4.747264-2.449408 2.105344-3.497984-4.585472-8.497152-6.076416-10.309632l-3.23584-4.747264c-0.548864-0.823296-1.619968-1.61792-0.937984-2.53952 0.741376-1.001472 2.973696-2.46784 4.323328-2.750464 1.175552-0.247808 2.142208 0.012288 2.994176-0.362496 4.10624-1.81248 6.987776-5.083136 10.371072-7.61856 1.886208-1.41312 5.861376-3.137536 4.020224-7.0144-2.029568-4.274176-5.998592-1.51552-8.88832-0.393216-5.03808 1.953792-9.310208 3.786752-13.666304 6.3488-1.984512 1.16736-3.639296 3.00032-5.924864 3.87072l-0.210944 0.60416c-1.234944 0.182272-2.228224-2.271232-1.845248-3.627008 0.387072-1.37216 1.390592-2.381824 2.086912-3.477504 2.738176-4.308992-0.950272-5.715968-3.477504-7.739392 1.705984-1.441792 1.243136-2.43712 1.572864-4.988928l0.57344-3.264512c0.260096-2.050048-0.526336-4.130816-0.966656-5.71392-1.306624-4.68992-1.818624-8.783872-6.017024-10.491904-1.943552-0.790528-4.839424-0.043008-6.289408 0.423936l-2.207744 0.301056c-1.773568 0.684032-4.114432 2.904064-4.655104 4.898816l-0.182272 0.06144c-0.729088-1.245184-2.463744-2.152448-2.660352-3.84-0.39936-3.444736 5.62176-7.276544 1.028096-10.340352-2.830336-1.886208-6.856704 0.989184-7.739392 0.452608-2.021376-1.226752-1.40288-3.915776-4.898816-3.90144-0.743424 0.192512-1.763328 0.202752-2.207744 0.69632-1.703936 1.886208 1.325056 7.200768 0.241664 10.006528l-1.390592 1.480704-0.937984 2.236416-1.3312 1.210368c-2.58048 2.224128-5.971968 4.173824-8.011776 6.924288-1.222656 1.64864-1.308672 3.651584-2.146304 5.654528l-1.3312 2.57024c-0.688128 2.535424 0.792576 4.366336 1.845248 5.593088 2.772992-0.256 4.12672-1.16736 5.715968-2.603008z m32.622592-12.72832c2.113536-0.032768 3.71712 1.681408 4.020224 3.385344l-0.059392 1.814528c0.403456 1.921024 2.998272 6.760448 0.6656 8.163328l-7.800832-9.101312c-0.755712-1.748992 2.121728-3.930112 3.1744-4.261888z m-1.20832 26.15296c2.009088 1.388544 0.002048 8.173568-1.421312 9.220096-2.3552 1.73056-6.490112-5.070848-7.952384-5.562368-0.362496-1.216512 1.73056-1.298432 1.480704-2.781184 0.761856-0.323584 1.011712-1.028096 1.452032-1.693696l1.087488-0.60416 0.210944 0.210944c-0.268288 0.196608-1.091584 0.862208-0.272384 1.058816l2.025472-0.69632c1.062912-0.270336 2.746368 0.403456 3.38944 0.847872z m-7.469056-11.941888c0.561152 0.466944 3.46112 3.81952 2.750464 5.14048l-1.480704 2.025472c-0.274432 0.768-0.970752 3.270656-1.421312 3.688448-0.39936 0.370688-3.1744 0.950272-3.930112 1.089536-2.871296-4.345856 0.315392-11.112448 4.081664-11.943936z m-11.941888-9.101312l0.817152-1.449984v-1.421312l0.6656-3.115008c0.530432 0.438272 0.651264 0.759808 0.997376 1.421312 0.722944 1.3824 2.67264 2.013184 3.1744 3.688448v1.3312l0.303104 1.23904-2.297856 3.20512c-0.636928 0.782336-1.470464 3.203072-3.115008 2.811904-2.189312-0.52224-1.13664-6.135808-0.544768-7.71072zM429.09696 183.939072c1.056768 0.192512 2.394112 0.325632 3.24608-0.147456l4.308992-3.364864c4.356096-2.82624 9.109504-5.1712 13.369344-8.02816 0.575488-0.385024 6.545408-2.398208 6.936576-2.183168 2.228224 1.216512-2.510848 4.43392-3.158016 4.988928l-3.77856 3.51232c-1.974272 1.23904-5.13024 1.046528-6.905856 2.449408-0.772096 0.610304-0.833536 2.527232-1.476608 3.2768-0.753664 0.88064-2.177024 1.60768-1.888256 3.393536 0.280576 1.732608 1.646592 2.455552 2.922496 3.217408 0.927744 0.555008 1.536 1.460224 2.77504 1.712128 1.488896 0.301056 2.51904-0.659456 3.393536-1.150976 2.75456-1.54624 7.63904-5.326848 11.362304-5.28384 0.006144 1.099776 0.454656 2.138112 0.206848 3.424256-0.131072 0.677888-0.83968 0.745472-1.032192 1.26976-0.794624 2.144256-0.55296 13.041664 0.442368 14.225408 0.1536 0.182272 0.821248 0.724992 1.00352 0.827392h0.237568l2.00704-0.473088c0.735232-0.047104 1.66912 0.38912 2.5088 0.147456 0.89088-0.256 2.209792-2.564096 2.5088-3.393536 0.52224-1.452032 0.28672-3.40992 0.561152-5.136384l0.589824-2.715648c0.110592-0.950272-0.063488-1.816576 0.088064-2.74432 0.172032-1.046528 0.575488-2.029568 0.442368-3.2768-0.223232-2.10944-0.987136-5.07904-0.176128-7.053312 1.021952-2.492416 5.095424-2.430976 7.585792-3.483648 0.514048-0.217088 7.829504-5.19168 7.880704-5.312512l0.028672-0.059392a1.468416 1.468416 0 0 0 0.028672-0.088064c0.1024-0.864256-0.794624-2.557952-1.179648-3.129344-3.381248-4.999168-4.657152 0.854016-9.150464 0.147456-1.226752-0.192512-6.981632-2.08896-8.146944-1.593344l-0.473088-0.649216c0.190464-0.817152 1.708032-1.572864 2.332672-2.035712l1.533952-1.150976 0.561152-0.944128 2.803712-1.357824c2.484224-1.120256 8.777728-4.11648 9.680896-6.463488l0.088064-1.386496 0.23552-1.357824-1.77152-1.800192c-3.7376-3.078144-8.349696 1.236992-10.743808 3.069952-1.161216 0.89088-2.387968 1.62816-3.452928 2.596864-0.483328 0.44032-2.545664 1.916928-3.688448 1.179648-1.179648-0.759808-1.325056-3.448832-0.561152-4.456448 0.64512-0.84992 1.738752-0.782336 2.537472-1.476608 0.512-0.444416 0.636928-1.339392 1.179648-1.800192 1.286144-1.091584 3.065856-1.982464 3.954688-3.452928l1.564672-3.600384 1.77152-1.533952c0.606208-0.731136 0.899072-1.677312 1.298432-2.627584-0.82944-1.51552-3.332096-5.81632-5.076992-6.080512-1.82272-0.27648-3.160064 0.718848-4.368384 1.122304l-1.681408 0.176128c-0.966656 0.561152-4.265984 4.317184-5.105664 4.073472a25.362432 25.362432 0 0 0-0.325632-0.176128c-0.80896-0.98304-0.925696-2.234368-1.00352-3.659776l-0.473088-1.417216c0.13312-1.3824 1.714176-3.01056 2.891776-3.393536l2.77504-0.708608c0.905216-0.575488 2.53952-3.198976 2.301952-4.958208-0.649216-4.800512-9.259008 1.323008-10.684416 0.50176-2.080768-1.19808-2.807808-7.888896 1.26976-7.112704l-0.561152 1.00352c1.101824 0.043008 6.012928-4.159488 5.842944-5.193728-0.208896-1.288192-4.46464-2.547712-6.404096-2.332672-2.981888 0.331776-6.56384 3.85024-8.175616 5.726208l-2.420736 2.125824c-1.056768 0.438272-2.158592 0.643072-3.334144 0.974848-2.064384 0.581632-1.562624 0.989184-3.2768-0.26624l0.26624-0.059392c-1.92512-3.192832-11.829248 0.694272-8.943616 4.634624 0.278528 0.37888 1.083392 0.026624 1.476608 0.294912 2.199552 1.503232 5.838848 1.824768 8.351744 0.325632l2.480128-1.828864 1.828864-0.620544 1.978368-1.712128 1.329152-0.176128c0.579584-0.274432 0.821248-0.851968 1.681408-0.884736 0.192512 1.019904 1.079296 1.325056 1.23904 2.480128 0.241664 1.742848-1.042432 2.916352-1.386496 4.2496-0.243712 0.94208-0.335872 1.630208-0.561152 2.301952-2.742272 0.032768-6.193152 2.707456-8.204288 3.688448l-2.715648 0.028672c-3.158016 0.473088-4.487168 1.517568-5.933056 3.393536-0.903168 1.175552-3.66592 2.06848-2.330624 4.337664 0.446464 0.761856 1.394688 0.780288 2.125824 1.23904 0.899072 0.565248 1.998848 1.687552 3.483648 1.564672 2.105344-0.17408 2.832384-1.708032 4.2496-2.568192l5.431296-2.891776c0.659456-0.4096 4.759552-3.022848 4.929536-2.27328 0.516096 2.289664-3.756032 5.144576-5.105664 6.049792l-2.095104 3.158016c-1.026048 1.42336-2.758656 2.168832-3.866624 3.483648l-2.596864 3.866624c-1.871872 1.378304-3.663872 0.765952-4.958208 3.01056l-1.357824 2.77504c-1.265664 1.544192-1.941504 2.039808-0.23552 3.985408 1.931264 2.2016 5.814272-0.12288 7.29088-1.032192l3.835904-2.095104c1.994752-0.745472 4.265984-1.134592 5.933056-2.213888 2.568192-1.662976 4.104192-4.909056 7.467008-5.695488 0.278528 0.804864 1.05472 7.99744 0.944128 8.26368l-1.77152 1.918976c-2.6624 3.090432-6.191104 4.53632-9.76896 6.7584-3.002368 1.86368-5.746688 3.831808-9.060352 5.490688-3.557376 1.779712-9.15456 3.00032-9.003008 7.909376 0.094208 2.975744 2.377728 3.231744 4.988928 3.710976z m40.347648-12.161024c1.41312 0.180224 0.192512 1.447936-0.26624 1.77152l-0.73728-0.473088c-0.253952-0.755712 0.561152-1.038336 1.00352-1.298432z m-6.995968-25.147392c0.559104-1.744896-0.079872-0.937984 1.210368-2.154496 1.3824-0.022528 1.67936 0.315392 2.361344 0.915456-0.229376 0.294912 0 1.36192-0.23552 1.918976-0.620544 1.458176-1.705984 2.609152-2.656256 3.74784l-0.23552-0.382976c-0.362496-0.882688-1.388544-3.715072-0.444416-4.0448z m-4.368384 31.758336c-1.222656 0.548864-1.972224 1.634304-4.042752 1.357824 0.720896-1.447936 2.318336-1.511424 2.863104-2.684928 0.630784 0.149504 1.163264 0.579584 1.179648 1.327104z m-10.448896-34.797568c-1.028096-0.70656 1.708032-3.035136 2.066432-3.483648l0.620544 0.088064c0.753664 1.579008-0.884736 4.632576-2.686976 3.395584zM549.564416 187.222016c5.523456 1.196032 12.355584-2.412544 15.476736-4.636672l4.298752-2.824192 4.6592-4.395008 3.452928-2.463744 3.815424-3.428352c2.701312-2.328576 3.91168-5.906432 7.172096-7.727104 1.892352-1.056768 3.995648-1.982464 6.592512-2.29376 4.476928-0.536576 6.54336 1.656832 9.271296-1.763328l1.54624-1.95584c0.58368-1.513472-2.922496-4.026368-3.960832-4.274176l-1.255424 0.217088c-1.613824 0.13312-2.95936-0.065536-4.274176 0.192512-0.987136 0.19456-2.746368-0.477184-2.89792-0.241664l-0.096256-0.049152c-0.477184-3.561472 2.658304-4.907008 4.442112-6.397952 2.666496-2.230272 5.72416-7.40352 7.292928-10.79296 0.507904-1.097728-0.561152-2.148352-0.821248-2.777088-0.90112-2.187264-0.043008-3.84-2.994176-4.153344-0.806912 0.31744-1.85344 0.397312-2.56 0.796672-2.69312 1.523712-5.179392 3.85024-7.14752 6.13376l-1.425408 1.61792-0.67584 1.906688-1.980416 3.524608-0.651264 1.88416-2.56 3.741696c-1.071104 1.773568-1.533952 3.2768-3.282944 4.370432-0.88064 0.550912-2.111488 1.212416-3.23584 1.425408-1.370112 0.260096-2.77504-0.548864-3.84-0.821248-3.97312-1.019904-6.469632 1.056768-7.460864 3.64544-0.32768 0.858112-0.098304 1.826816 0.024576 2.656256 0.09216 0.618496-0.129024 1.181696 0.169984 1.593344 0.91136 1.257472 6.602752 1.82272 6.88128 2.89792l-0.217088 0.74752 0.700416 0.120832c-0.110592 0.751616-3.44064 4.071424-4.079616 4.804608l-4.85376 5.117952c-1.112064 0.856064-2.598912 1.265664-3.862528 1.980416l-3.162112 2.197504-3.381248 1.785856c-1.31072 0.74752-2.332672 1.724416-3.524608 2.56l-1.425408 0.796672-0.387072 0.868352-0.120832 0.024576-0.049152-0.024576-0.024576 0.024576c0.661504 1.011712-0.139264 1.927168 0.411648 3.387392zM600.487936 186.763264c-1.429504-0.64512-2.285568-1.769472-3.428352-2.680832l-1.447936-0.989184-1.593344-2.486272-4.153344-5.117952c-0.64512-0.473088-1.867776-0.770048-2.873344-0.821248-2.209792 1.417216-3.905536 3.160064-3.50208 7.026688l-0.145408 1.159168 3.332096 3.57376c0.33792 0.45056 0.395264 0.886784 0.67584 1.447936l1.400832 2.076672c2.189312 3.54304 2.895872 4.401152 7.172096 5.916672l0.241664 0.651264c2.656256 0.360448 4.818944 1.697792 7.364608 2.02752l3.065856-0.33792c0.813056-0.090112 1.470464 0.374784 2.02752 0.288768h0.049152c0.876544-0.239616 1.544192-0.96256 2.70336-1.062912l-0.07168-0.387072 1.062912-0.555008-0.145408-0.313344c3.04128 0.647168 1.492992-3.119104 0.579584-3.887104-1.470464-1.232896-4.128768-1.458176-6.012928-2.244608-1.316864-0.550912-2.134016-1.554432-3.30752-2.22208l-2.994176-1.062912zM675.69664 202.26048c1.738752-0.512 2.863104-1.626112 4.079616-2.654208 0.567296-0.479232 0.909312-1.267712 1.794048-1.425408l2.015232 0.36864c2.46784 0.5632 4.90496 1.191936 7.12704 1.8432l4.66944 0.6144c3.9424 1.417216 8.095744 3.09248 11.649024 5.087232 2.555904 1.4336 5.21216 2.934784 8.11008 4.104192l5.65248 1.548288 3.80928 1.376256c1.196032 0.335872 2.824192 0.397312 3.710976 1.081344-0.620544 0.581632-1.077248 1.527808-1.744896 2.039808-0.878592 0.673792-0.923648-0.110592-1.523712 1.155072 2.306048 2.463744 6.598656 5.613568 11.91936 4.841472 3.182592-0.462848 4.216832-4.777984 3.760128-8.577024-0.18432-1.52576-0.169984-2.603008-0.86016-3.538944-2.000896-2.715648-8.122368-4.182016-11.894784-5.210112l-2.555904-0.417792c-1.329152-0.530432-2.441216-1.824768-3.661824-2.408448l-2.654208-0.958464c-1.138688-0.509952-1.984512-1.247232-3.19488-1.695744-1.4336-0.530432-2.910208-0.688128-4.227072-1.302528l-0.884736-0.6144c-1.366016-0.557056-2.811904-0.632832-4.3008-1.056768l-3.072-1.155072-2.433024-0.466944c-1.282048-0.991232 1.419264-3.05152 1.990656-3.56352 1.247232-1.11616 2.025472-2.664448 3.096576-3.956736l3.612672-3.342336c0.79872-0.796672 1.533952-2.183168 2.998272-2.260992 0.362496 0.403456 0.237568 0.899072-0.049152 1.302528l-2.08896 1.744896-1.425408 2.138112c-1.069056 1.425408-3.207168 2.453504-3.981312 4.104192-0.43008 0.915456 0.290816 2.586624 0.73728 2.973696 1.036288 0.899072 4.478976-1.519616 5.03808-2.064384 1.619968-1.572864 10.911744-10.842112 13.959168-9.166848l0.049152 0.147456c-0.700416 1.120256-3.50208 2.045952-4.743168 2.777088-2.404352 1.415168-3.923968 3.557376-5.505024 5.799936-0.33792 0.48128-1.058816 0.978944-1.130496 1.671168l0.516096 1.155072c0.206848 0.62464-0.04096 0.95232 0.393216 1.302528 0.69632 0.559104 1.445888 0.196608 2.555904 0.36864 0.82944 0.129024 1.671168 0.638976 2.70336 0.638976l0.835584-0.270336c1.200128-0.141312 1.878016 0.22528 2.82624-0.270336l1.47456-1.081344 0.909312-0.172032c0.751616-0.421888 2.496512-2.756608 3.538944-1.941504 0.233472 0.956416-3.033088 3.10272-3.784704 3.538944l-2.482176 1.007616c-0.391168 0.284672-0.395264 1.3312-0.049152 1.671168l1.794048 0.466944c1.333248 0.305152 2.578432 0.649216 4.104192 0.811008 1.882112 0.200704 3.598336-0.477184 5.16096-0.786432 2.402304-0.473088 5.060608-0.047104 7.176192-0.540672 4.083712-0.954368 10.389504-6.43072 10.887168-10.739712 0.137216-1.191936-0.600064-2.000896-0.786432-3.022848l-0.172032-1.867776c-0.370688-1.245184-1.76128-1.943552-2.752512-2.605056-0.602112-0.401408-1.20832-1.196032-1.990656-1.35168l-1.794048 0.172032c-1.585152 0.221184-2.914304 0.43008-4.251648 0.835584l-1.671168 0.835584-2.21184 0.319488c-0.319488 0.055296-0.731136 0.309248-1.130496 0.147456-0.780288-1.908736 2.209792-3.284992 1.8432-5.77536-0.319488-2.174976-1.601536-2.310144-2.82624-3.489792l-0.073728-0.12288c-2.260992 0.876544-3.557376 3.008512-6.660096 2.58048v-0.024576l0.49152-0.442368-0.49152-0.442368 0.688128-1.302528-0.344064-0.393216c1.128448-0.70656-1.214464-2.424832-1.622016-2.555904l-0.933888-0.098304c-1.593344-0.299008-3.145728 1.869824-3.981312 1.523712-0.856064-0.356352 0.186368-2.287616 0.36864-2.654208-0.180224-0.77824-2.383872-1.681408-3.56352-1.794048l-1.916928 0.6144-7.077888 4.128768-0.73728 0.86016-2.113536 1.425408c-0.768 0.83968-1.048576 2.035712-1.916928 2.777088-1.970176 1.681408-4.06528 3.293184-5.726208 5.28384l-1.8432 2.33472c-0.530432 0.630784-1.810432 1.323008-2.064384 2.138112-0.292864 0.937984-0.444416 2.576384-0.24576 3.735552l0.098304 0.270336c-1.368064 2.271232-7.911424-5.185536-11.403264-4.767744l-2.899968 1.007616c-5.033984 2.103296-5.183488 4.192256-8.011776 8.208384-0.669696 0.950272-1.941504 1.662976-2.236416 2.899968-0.258048 1.077248 0.290816 1.953792 0.688128 2.555904 0.997376 1.513472 2.269184 2.781184 4.866048 2.015232z m56.107008-14.1312c1.80224-1.826816 3.598336-1.767424 6.856704-2.113536l2.973696-0.147456c1.748992-0.049152 2.770944 1.808384 1.548288 2.998272 1.286144 1.220608-3.18464 5.040128-5.013504 4.595712-1.568768-0.380928-0.01024-4.067328-0.761856-5.332992-0.657408-1.10592-2.756608-1.36192-3.80928-0.36864-0.401408 0.37888-0.864256 1.265664-1.449984 1.400832-0.413696-0.206848-0.73728-0.632832-0.344064-1.032192z m-5.505024 0.393216v0.049152c-0.536576 0.54272-3.956736 5.505024-5.40672 3.612672-1.327104-1.73056 3.168256-3.551232 3.6864-4.497408 0.935936 0.073728 1.138688 0.462848 1.72032 0.835584z" fill="#E61C25" p-id="7306"></path><path d="M713.887744 213.467136c-0.991232-1.466368-2.623488-1.968128-4.374528-2.70336l-1.695744-1.155072c-3.467264-1.380352-6.572032-1.828864-10.887168-2.58048-1.212416-0.210944-2.031616-0.761856-3.588096-0.73728-3.323904 0.780288-5.507072 1.329152-4.079616 5.111808 0.202752 0.538624 0.47104 1.67936 0.958464 1.916928l7.24992 0.442368 4.349952 1.990656c0.663552 0.284672 1.857536 0.806912 1.253376 1.8432-0.557056 0.956416-2.869248 3.680256-4.079616 3.858432-1.384448 0.202752-3.4304-1.486848-4.718592-1.867776-1.337344-0.395264-3.190784-0.569344-4.42368-0.786432-2.01728-0.354304-8.040448-0.284672-8.896512 0.786432-0.54272 0.677888-0.612352 2.025472-0.73728 3.096576-0.505856 4.374528 5.75488 5.328896 9.633792 5.726208l2.82624 0.172032c0.749568 0.147456 3.899392 1.492992 3.80928 2.162688-1.693696 1.427456-6.037504 4.868096-9.09312 3.514368-2.00704-0.888832-5.736448-5.1712-8.306688-4.816896-2.142208 0.294912-0.055296 2.28352-0.589824 3.416064-0.520192 1.103872-2.885632 1.601536-2.629632 3.366912l0.565248 1.622016-0.073728 1.376256c0.104448 0.827392 0.526336 1.431552 0.958464 1.941504 2.0992 2.47808 6.361088 4.231168 11.18208 3.44064 1.30048-0.212992 2.379776-0.688128 3.489792-0.958464 1.247232-0.305152 2.41664-0.169984 3.6864-0.466944 2.803712-0.65536 5.050368-2.14016 7.028736-3.661824 0.704512-0.54272 1.460224-1.25952 1.916928-2.039808 0.628736-1.0752 0.84992-2.680832 1.941504-3.268608 0.561152-0.303104 1.550336 0.094208 2.039808 0.196608 2.238464 0.468992 4.64896 0.182272 5.578752-1.302528 0.438272-0.700416 0.651264-1.86368 0.49152-2.998272-0.344064-2.433024-1.171456-3.172352-3.244032-3.784704l-1.277952-0.270336c-0.284672-1.603584-1.329152-0.90112-2.08896-2.015232 2.637824-0.948224 5.453824-1.06496 7.053312-2.998272 1.816576-2.195456-0.11264-5.914624-1.2288-7.569408z" fill="#E61C25" p-id="7307"></path></svg>